<svg xmlns="http://www.w3.org/2000/svg" width="36" height="36" viewBox="0 0 36 36" fill="none">
  <path d="M30.391 30.7001C33.7505 27.3278 35.6338 22.76 35.6273 18C35.6237 17.7062 35.5046 17.4256 35.2955 17.2192C35.0865 17.0126 34.8046 16.8969 34.5108 16.8969C34.2168 16.8969 33.9349 17.0126 33.7259 17.2192C33.5168 17.4256 33.3977 17.7062 33.3941 18C33.3988 22.1714 31.7476 26.1743 28.8031 29.1292C27.3738 30.5966 25.665 31.763 23.7774 32.5595C21.89 33.3558 19.8622 33.7661 17.8136 33.7661C15.765 33.7661 13.7372 33.3558 11.8497 32.5595C9.9623 31.763 8.25348 30.5966 6.82409 29.1292C3.88361 26.1714 2.23313 22.1701 2.23313 17.9993C2.23313 13.8285 3.88361 9.82722 6.82409 6.86937C8.24515 5.41317 9.94115 4.25356 11.8137 3.45775C13.6863 2.66196 15.6983 2.24579 17.733 2.23341C18.1674 2.24702 18.5793 2.42982 18.8809 2.74283C19.1825 3.05581 19.3499 3.47426 19.3472 3.9089C19.3448 4.34354 19.1726 4.75999 18.8674 5.06947C18.5622 5.37894 18.1481 5.55692 17.7136 5.56548C17.6733 5.56556 17.6331 5.56779 17.5931 5.57216C14.4976 5.67185 11.5605 6.96436 9.39585 9.17944C7.10984 11.4807 5.82684 14.5927 5.82684 17.8364C5.82684 21.0802 7.10984 24.1921 9.39585 26.4934C10.5126 27.6374 11.847 28.5465 13.3203 29.1671C14.7936 29.7878 16.3763 30.1075 17.9749 30.1075C19.5736 30.1075 21.1563 29.7878 22.6296 29.1671C24.1028 28.5465 25.4372 27.6374 26.554 26.4934C28.8435 24.1945 30.1271 21.081 30.1225 17.8364C30.1272 17.3254 30.0306 16.8183 29.8383 16.3448C29.6459 15.8714 29.3617 15.4406 29.0019 15.0776C28.6421 14.7145 28.2141 14.4263 27.7424 14.2297C27.2706 14.033 26.7647 13.9318 26.2535 13.9318C25.7424 13.9318 25.2364 14.033 24.7647 14.2297C24.293 14.4263 23.8649 14.7145 23.5051 15.0776C23.1453 15.4406 22.8612 15.8714 22.6687 16.3448C22.4765 16.8183 22.3798 17.3254 22.3846 17.8364C22.3846 17.869 22.3867 17.8996 22.3893 17.9309C22.3867 17.9622 22.3846 17.9935 22.3846 18.0254C22.3919 18.9164 22.1343 19.7895 21.6445 20.534C21.1548 21.2783 20.455 21.8603 19.6339 22.2064C18.8128 22.5524 17.9073 22.6467 17.0326 22.4774C16.1578 22.3079 15.353 21.8827 14.7204 21.2552C14.0877 20.6277 13.6558 19.8265 13.4792 18.9531C13.3027 18.0797 13.3896 17.1735 13.7289 16.3497C14.0682 15.5257 14.6446 14.8211 15.3849 14.3253C16.1253 13.8295 16.9963 13.5648 17.8873 13.5648C18.0351 13.5666 18.1817 13.539 18.3187 13.4837C18.4558 13.4284 18.5804 13.3464 18.6855 13.2426C18.7906 13.1387 18.8742 13.015 18.9311 12.8786C18.9881 12.7423 19.0174 12.596 19.0174 12.4482C19.0174 12.3004 18.9881 12.1541 18.9311 12.0178C18.8742 11.8814 18.7906 11.7577 18.6855 11.6538C18.5804 11.55 18.4558 11.468 18.3187 11.4127C18.1817 11.3574 18.0351 11.3298 17.8873 11.3316C16.565 11.339 15.2744 11.7378 14.1785 12.4778C13.0825 13.2178 12.2303 14.2658 11.7294 15.4896C11.2284 16.7134 11.1012 18.0582 11.3636 19.3542C11.6261 20.6503 12.2666 21.8395 13.2042 22.772C14.1419 23.7044 15.3347 24.3382 16.6323 24.5936C17.9296 24.8488 19.2738 24.714 20.4947 24.2063C21.7157 23.6985 22.759 22.8406 23.4929 21.7406C24.2268 20.6405 24.6184 19.3477 24.6184 18.0254C24.6184 17.9928 24.6162 17.9622 24.6136 17.9309C24.6162 17.8996 24.6184 17.8683 24.6184 17.8364C24.614 17.6189 24.6531 17.4026 24.7334 17.2003C24.8136 16.998 24.9335 16.8138 25.0857 16.6585C25.238 16.503 25.4199 16.3795 25.6205 16.2953C25.8211 16.211 26.0366 16.1676 26.2542 16.1676C26.4717 16.1676 26.6873 16.211 26.8879 16.2953C27.0885 16.3795 27.2703 16.503 27.4227 16.6585C27.5749 16.8138 27.6948 16.998 27.7749 17.2003C27.8553 17.4026 27.8944 17.6189 27.89 17.8364C27.8929 20.4927 26.8414 23.0415 24.9664 24.9231C24.0573 25.8571 22.9703 26.5993 21.7696 27.1062C20.5688 27.6131 19.2787 27.8742 17.9753 27.8742C16.672 27.8742 15.3819 27.6131 14.1811 27.1062C12.9804 26.5993 11.8933 25.8571 10.9842 24.9231C9.11176 23.0399 8.06071 20.4921 8.06071 17.8364C8.06071 15.1807 9.11176 12.633 10.9842 10.7497C11.8941 9.81695 12.9811 9.07539 14.1815 8.56861C15.382 8.06182 16.6715 7.80005 17.9746 7.79864C18.0748 7.79837 18.1745 7.78457 18.2712 7.75758C19.2218 7.6118 20.0849 7.12017 20.6953 6.37704C21.3057 5.6339 21.6202 4.69157 21.5785 3.73083C21.5367 2.77007 21.1416 1.85855 20.4691 1.17114C19.7967 0.48371 18.8941 0.0687817 17.9345 0.00594839C17.8944 0.00158228 17.854 -0.000647837 17.8136 -0.000732422C17.7911 -0.000732422 17.7688 -0.000732422 17.7463 -0.000732422C17.7352 -0.000732422 17.7245 -0.000732422 17.7137 -0.000732422C17.703 -0.000732422 17.6919 0.000570245 17.6811 0.000896135C15.3598 0.0191518 13.0651 0.496723 10.9292 1.40608C8.79331 2.31542 6.85858 3.63857 5.23651 5.29923C1.88261 8.67509 0.000244141 13.2406 0.000244141 17.9993C0.000244141 22.758 1.88261 27.3234 5.23651 30.6993C6.87357 32.3768 8.82968 33.71 10.9897 34.6201C13.1497 35.5303 15.47 35.9993 17.8139 35.9993C20.1579 35.9993 22.4781 35.5303 24.6382 34.6201C26.7983 33.71 28.7542 32.3768 30.3914 30.6993L30.391 30.7001Z" fill="white"/>
</svg>