<svg width="37" height="37" viewBox="0 0 37 37" fill="none" xmlns="http://www.w3.org/2000/svg">
<mask id="mask0_1478_4747" style="mask-type:luminance" maskUnits="userSpaceOnUse" x="0" y="0" width="37" height="37">
<path d="M36.2949 0.0170898H0.667542V36.0171H36.2949V0.0170898Z" fill="white"/>
</mask>
<g mask="url(#mask0_1478_4747)">
<path d="M31.0586 30.7172C34.418 27.3449 36.3013 22.777 36.2948 18.0171C36.2912 17.7233 36.1721 17.4427 35.9631 17.2363C35.754 17.0296 35.4721 16.9139 35.1783 16.9139C34.8844 16.9139 34.6025 17.0296 34.3934 17.2363C34.1844 17.4427 34.0652 17.7233 34.0617 18.0171C34.0664 22.1885 32.4151 26.1914 29.4707 29.1463C28.0413 30.6137 26.3325 31.7801 24.445 32.5766C22.5576 33.3729 20.5297 33.7832 18.4811 33.7832C16.4326 33.7832 14.4047 33.3729 12.5173 32.5766C10.6298 31.7801 8.92102 30.6137 7.49163 29.1463C4.55115 26.1885 2.90068 22.1872 2.90068 18.0164C2.90068 13.8456 4.55115 9.84431 7.49163 6.88646C8.91269 5.43026 10.6087 4.27065 12.4813 3.47484C14.3539 2.67905 16.3658 2.26288 18.4005 2.2505C18.8349 2.26411 19.2468 2.44691 19.5484 2.75992C19.8501 3.0729 20.0174 3.49135 20.0148 3.92599C20.0123 4.36063 19.8401 4.77708 19.5349 5.08656C19.2297 5.39603 18.8157 5.57401 18.3811 5.58257C18.3409 5.58265 18.3006 5.58488 18.2607 5.58925C15.1652 5.68894 12.228 6.98145 10.0634 9.19653C7.77738 11.4978 6.49439 14.6098 6.49439 17.8535C6.49439 21.0972 7.77738 24.2092 10.0634 26.5104C11.1802 27.6545 12.5145 28.5636 13.9878 29.1842C15.4612 29.8049 17.0438 30.1246 18.6425 30.1246C20.2411 30.1246 21.8238 29.8049 23.2972 29.1842C24.7703 28.5636 26.1047 27.6545 27.2215 26.5104C29.5111 24.2116 30.7946 21.0981 30.79 17.8535C30.7948 17.3425 30.6981 16.8354 30.5059 16.3619C30.3134 15.8885 30.0292 15.4577 29.6695 15.0947C29.3097 14.7316 28.8816 14.4434 28.4099 14.2468C27.9382 14.0501 27.4322 13.9488 26.9211 13.9488C26.4099 13.9488 25.904 14.0501 25.4322 14.2468C24.9605 14.4434 24.5324 14.7316 24.1727 15.0947C23.8129 15.4577 23.5287 15.8885 23.3363 16.3619C23.144 16.8354 23.0474 17.3425 23.0521 17.8535C23.0521 17.8861 23.0542 17.9167 23.0568 17.948C23.0542 17.9793 23.0521 18.0106 23.0521 18.0425C23.0594 18.9335 22.8018 19.8066 22.312 20.5511C21.8223 21.2954 21.1225 21.8774 20.3014 22.2235C19.4803 22.5695 18.5748 22.6638 17.7002 22.4945C16.8253 22.325 16.0206 21.8997 15.3879 21.2722C14.7553 20.6447 14.3233 19.8435 14.1468 18.9702C13.9703 18.0968 14.0572 17.1906 14.3965 16.3668C14.7357 15.5428 15.3121 14.8382 16.0525 14.3424C16.7928 13.8466 17.6638 13.5819 18.5548 13.5819C18.7026 13.5837 18.8492 13.5561 18.9863 13.5008C19.1233 13.4455 19.248 13.3635 19.3531 13.2597C19.4582 13.1558 19.5418 13.0321 19.5986 12.8957C19.6557 12.7594 19.685 12.6131 19.685 12.4653C19.685 12.3175 19.6557 12.1712 19.5986 12.0349C19.5418 11.8985 19.4582 11.7748 19.3531 11.6709C19.248 11.5671 19.1233 11.4851 18.9863 11.4298C18.8492 11.3745 18.7026 11.3469 18.5548 11.3487C17.2325 11.356 15.9419 11.7549 14.846 12.4949C13.7501 13.2349 12.8979 14.2829 12.3969 15.5067C11.896 16.7305 11.7687 18.0753 12.0312 19.3713C12.2937 20.6674 12.9341 21.8566 13.8718 22.7891C14.8094 23.7215 16.0022 24.3553 17.2998 24.6107C18.5972 24.8658 19.9413 24.7311 21.1623 24.2233C22.3832 23.7156 23.4265 22.8577 24.1604 21.7577C24.8944 20.6576 25.2859 19.3648 25.2859 18.0425C25.2859 18.0099 25.2838 17.9793 25.2812 17.948C25.2838 17.9167 25.2859 17.8854 25.2859 17.8535C25.2815 17.636 25.3206 17.4197 25.4009 17.2174C25.4811 17.0151 25.601 16.8308 25.7532 16.6756C25.9056 16.5201 26.0874 16.3966 26.288 16.3124C26.4886 16.2281 26.7042 16.1847 26.9217 16.1847C27.1392 16.1847 27.3548 16.2281 27.5554 16.3124C27.756 16.3966 27.9378 16.5201 28.0902 16.6756C28.2424 16.8308 28.3623 17.0151 28.4425 17.2174C28.5228 17.4197 28.5619 17.636 28.5575 17.8535C28.5605 20.5098 27.509 23.0586 25.634 24.9401C24.7249 25.8741 23.6379 26.6164 22.4371 27.1233C21.2364 27.6302 19.9462 27.8912 18.6428 27.8912C17.3396 27.8912 16.0494 27.6302 14.8486 27.1233C13.6479 26.6164 12.5609 25.8741 11.6518 24.9401C9.7793 23.057 8.72825 20.5092 8.72825 17.8535C8.72825 15.1978 9.7793 12.65 11.6518 10.7668C12.5616 9.83404 13.6486 9.09248 14.8491 8.5857C16.0495 8.07891 17.3391 7.81714 18.6421 7.81573C18.7423 7.81546 18.8421 7.80166 18.9387 7.77467C19.8893 7.62889 20.7524 7.13726 21.3628 6.39413C21.9732 5.65099 22.2877 4.70866 22.246 3.74792C22.2043 2.78716 21.8091 1.87564 21.1367 1.18823C20.4642 0.5008 19.5616 0.0858716 18.6021 0.0230382C18.562 0.0186721 18.5216 0.016442 18.4811 0.0163574C18.4587 0.0163574 18.4363 0.0163574 18.4139 0.0163574C18.4028 0.0163574 18.392 0.0163574 18.3813 0.0163574C18.3705 0.0163574 18.3594 0.0176601 18.3487 0.017986C16.0274 0.0362417 13.7326 0.513813 11.5967 1.42316C9.46085 2.33251 7.52612 3.65566 5.90405 5.31632C2.55015 8.69218 0.667786 13.2577 0.667786 18.0164C0.667786 22.7751 2.55015 27.3405 5.90405 30.7164C7.54111 32.3939 9.49722 33.7271 11.6572 34.6372C13.8172 35.5474 16.1375 36.0164 18.4815 36.0164C20.8254 36.0164 23.1456 35.5474 25.3058 34.6372C27.4658 33.7271 29.4218 32.3939 31.0589 30.7164L31.0586 30.7172Z" fill="url(#paint0_linear_1478_4747)"/>
</g>
<defs>
<linearGradient id="paint0_linear_1478_4747" x1="5.83371" y1="30.6524" x2="28.4738" y2="8.49611" gradientUnits="userSpaceOnUse">
<stop stop-color="#41287B"/>
<stop offset="0.123" stop-color="#462779"/>
<stop offset="0.284" stop-color="#572775"/>
<stop offset="0.465" stop-color="#72266E"/>
<stop offset="0.663" stop-color="#982565"/>
<stop offset="0.87" stop-color="#C82459"/>
<stop offset="0.99" stop-color="#E72452"/>
</linearGradient>
</defs>
</svg>
